<svg version="1.1" id="Layer_1" xmlns="http://www.w3.org/2000/svg" xmlns:xlink="http://www.w3.org/1999/xlink" x="0px" y="0px"
	 width="100%" viewBox="0 0 900 900" enable-background="new 0 0 900 900" xml:space="preserve">
<path fill="#000000" opacity="1.000000" stroke="none" 
	d="
M832.000000,901.000000 
	C554.666687,901.000000 277.833344,901.000000 1.000000,901.000000 
	C1.000000,601.000000 1.000000,301.000000 1.000000,1.000000 
	C301.000000,1.000000 601.000000,1.000000 901.000000,1.000000 
	C901.000000,301.000000 901.000000,601.000000 901.000000,901.000000 
	C878.166687,901.000000 855.333313,901.000000 832.000000,901.000000 
M287.396515,458.691956 
	C286.525055,457.522888 285.529907,456.425842 284.801147,455.173767 
	C276.859161,441.528717 269.042633,427.809326 260.939728,414.261017 
	C259.941772,412.592407 257.475403,411.802002 255.689514,410.604645 
	C255.379425,411.042877 255.069336,411.481110 254.759262,411.919312 
	C254.990631,412.521027 255.146072,413.166504 255.464249,413.718109 
	C270.738220,440.197113 285.975952,466.697449 301.427551,493.072479 
	C302.441559,494.803375 305.103210,495.569061 308.014923,497.435150 
	C308.014923,468.341522 308.044983,441.035828 307.891510,413.731171 
	C307.886078,412.762054 306.062469,411.803192 305.086212,410.839539 
	C304.620819,411.181793 304.155396,411.524048 303.690002,411.866272 
	C303.690002,436.826599 303.690002,461.786896 303.690002,487.828430 
	C300.985748,483.188416 298.806030,479.651215 296.858490,475.990448 
	C296.226654,474.802704 296.202667,473.291595 296.646484,471.893433 
	C297.502533,473.161682 298.358612,474.429932 299.761353,476.508118 
	C299.761353,454.160278 299.761353,432.933990 299.761353,411.532440 
	C298.203369,411.532440 296.855377,411.532440 295.163940,411.532440 
	C295.163940,428.684235 295.121124,445.480255 295.201050,462.275665 
	C295.216522,465.525970 295.711517,468.773987 295.400665,472.611053 
	C293.247955,469.220642 290.982178,465.894440 289.001862,462.406158 
	C288.277039,461.129456 288.229431,459.468292 288.510986,457.603790 
	C289.295013,458.683655 290.079071,459.763550 291.432068,461.627075 
	C291.432068,445.257080 291.369690,429.978210 291.481506,414.700623 
	C291.505585,411.408417 290.291412,410.583313 287.969330,411.365326 
	C287.969330,427.110474 287.969330,442.591431 287.396515,458.691956 
M243.662720,446.477448 
	C242.831467,447.106598 241.397751,447.642609 241.283325,448.382599 
	C240.956421,450.496796 241.164246,452.693848 241.164185,454.858337 
	C241.163742,468.469452 241.163956,482.080566 241.163956,496.048889 
	C243.047653,495.930725 244.416168,495.844910 245.966797,495.747650 
	C245.966797,482.875214 246.090134,470.401215 245.873413,457.933136 
	C245.823975,455.089264 244.492722,452.285553 243.965210,449.423920 
	C243.732315,448.160583 244.033020,446.798920 244.520050,446.185913 
	C253.507584,461.704895 262.562958,477.185333 271.421783,492.777435 
	C273.069000,495.676636 274.841858,496.848267 278.095856,495.563477 
	C277.883484,494.985535 277.779114,494.495087 277.540649,494.082062 
	C262.176270,467.470398 246.753448,440.892303 231.490967,414.222412 
	C229.713501,411.116455 227.743713,410.633728 224.793274,411.696106 
	C224.793274,439.909637 224.793274,467.829895 224.793274,495.759460 
	C226.290283,495.759460 227.529510,495.759460 229.319839,495.759460 
	C229.319839,470.724091 229.319839,445.938293 229.319839,419.918732 
	C234.727036,429.291809 239.455704,437.488708 243.662720,446.477448 
M716.057922,450.098206 
	C711.774658,464.736328 701.933350,472.180878 686.843933,472.191193 
	C679.847229,472.195953 672.847290,472.320129 665.855225,472.139526 
	C662.218628,472.045593 661.568787,473.522644 662.476074,476.250153 
	C667.065002,476.931152 672.512329,476.194824 675.299011,478.574310 
	C678.266602,481.108307 678.713745,486.591980 680.268188,490.785248 
	C680.498901,491.407593 680.885315,491.995056 680.998779,492.634308 
	C681.635620,496.220428 683.803833,496.685547 686.878784,495.580719 
	C684.682861,489.505524 682.500061,483.466705 680.317261,477.427887 
	C680.697998,477.114563 681.078735,476.801270 681.459473,476.487946 
	C682.471985,477.522461 683.885315,478.382874 684.424255,479.623169 
	C686.273132,483.878540 687.957764,488.219574 689.426331,492.620941 
	C690.459900,495.718292 692.055664,496.962769 695.380005,495.470734 
	C693.099976,489.444427 690.833313,483.453186 688.566589,477.461945 
	C689.006653,477.133545 689.446716,476.805145 689.886780,476.476746 
	C690.870361,477.523102 692.218384,478.406738 692.771179,479.645355 
	C694.663818,483.885834 696.474548,488.185638 697.931152,492.590271 
	C698.989441,495.790375 700.657898,496.870941 704.042114,495.506989 
	C701.586487,489.217834 699.129639,482.925476 696.600708,476.448395 
	C697.699280,475.937286 698.648376,475.495728 699.686096,475.012909 
	C702.534424,482.160339 705.229248,488.922638 707.932190,495.705261 
	C709.563110,495.705261 711.080994,495.705261 712.777954,495.705261 
	C709.842163,488.016907 707.037170,480.670990 704.275879,473.439606 
	C705.093750,472.834076 705.472900,472.504272 705.896179,472.247131 
	C718.694824,464.470947 723.189941,450.860962 720.707825,437.457916 
	C718.246887,424.169098 706.435059,413.104858 692.207458,412.037659 
	C677.632935,410.944427 662.941895,411.385559 648.301208,411.203766 
	C642.528503,411.132080 636.754211,411.191986 630.753296,411.191986 
	C630.753296,439.657104 630.753296,467.588470 630.753296,495.700500 
	C632.186279,495.700500 633.518494,495.700500 635.028076,495.700500 
	C635.028076,482.228943 635.028076,469.080902 635.028076,455.932861 
	C635.028076,442.670807 635.028076,429.408722 635.028076,415.944336 
	C636.928589,415.944336 638.241943,415.943237 639.555298,415.944458 
	C656.213806,415.959778 672.896545,415.417084 689.524536,416.137238 
	C708.814880,416.972656 719.920898,435.118805 716.057922,450.098206 
M359.500000,398.986755 
	C346.070557,398.986755 332.641113,398.986755 319.211456,398.986755 
	C319.211456,431.662781 319.211456,463.764679 319.211456,496.072571 
	C320.701324,495.950623 321.950195,495.848389 323.709351,495.704407 
	C323.709351,464.867188 323.709351,434.306610 323.709351,403.602875 
	C343.220642,403.602875 362.225250,402.929016 381.158661,403.801147 
	C398.494629,404.599701 411.797516,421.043091 407.658173,437.194702 
	C405.659576,444.993164 406.105560,451.256134 407.837738,458.817688 
	C411.590088,475.198151 396.757050,491.114990 378.626282,491.513397 
	C370.465179,491.692749 362.293671,491.679718 354.133301,491.484497 
	C350.353210,491.394043 350.074341,492.990326 351.003113,495.971039 
	C361.238007,495.971039 371.236298,496.238190 381.215729,495.917480 
	C404.723541,495.161896 419.407562,471.189850 409.661346,449.864685 
	C409.191711,448.837067 409.045837,447.288483 409.466278,446.282074 
	C418.138245,425.523193 408.023285,404.811310 385.850494,399.999115 
	C377.710510,398.232452 368.967773,399.243011 359.500000,398.986755 
M770.498230,496.034058 
	C776.784424,495.656769 783.276489,496.156372 789.318359,494.738251 
	C807.649658,490.435730 822.788818,472.623627 821.020752,449.395966 
	C819.617310,430.959167 803.875244,413.590637 784.638428,412.181976 
	C766.929749,410.885254 749.077942,411.540741 731.288940,411.363953 
	C731.029968,411.361389 730.767456,411.718109 730.426270,411.965363 
	C730.426270,439.810577 730.426270,467.706390 730.426270,496.034058 
	C743.609253,496.034058 756.554138,496.034058 770.498230,496.034058 
M89.558998,398.986755 
	C87.121338,398.986755 84.683678,398.986755 82.199341,398.986755 
	C82.199341,431.623108 82.199341,463.722290 82.199341,496.033325 
	C83.676720,495.932556 84.923721,495.847473 86.681686,495.727570 
	C86.681686,464.910309 86.681686,434.346008 86.681686,403.624481 
	C105.680771,403.624481 124.150604,403.539185 142.617889,403.717834 
	C145.338120,403.744141 148.180984,404.700378 150.737610,405.773224 
	C164.877716,411.706848 172.798676,426.427765 169.850906,440.951752 
	C166.731232,456.322784 154.193420,466.707123 138.259521,466.964844 
	C130.469315,467.090881 122.675400,466.986664 114.907928,466.986664 
	C114.010559,470.323151 114.744965,471.641113 118.094215,471.510803 
	C126.240135,471.193848 134.419327,471.493378 142.545319,470.949615 
	C162.401169,469.620972 175.555237,453.928680 174.924835,432.753235 
	C174.391434,414.836334 158.158829,399.077332 140.033569,399.001495 
	C123.536942,398.932434 107.039795,398.986816 89.558998,398.986755 
M392.862488,483.411072 
	C405.888733,474.224884 408.306030,460.372070 399.456757,447.994659 
	C401.040924,444.615051 403.026245,441.625885 403.881683,438.342377 
	C407.915924,422.856598 395.113922,407.319275 378.314331,407.188446 
	C364.153473,407.078186 349.991089,407.165680 335.829376,407.165649 
	C333.061035,407.165649 330.292694,407.165649 327.381317,407.165649 
	C327.381317,437.108521 327.381317,466.366241 327.381317,496.024994 
	C328.974030,495.906555 330.321320,495.806366 331.919006,495.687592 
	C331.919006,467.646515 331.919006,440.043427 331.919006,412.047455 
	C348.645416,412.047455 365.114136,411.500397 381.524963,412.239258 
	C392.517059,412.734131 401.312683,424.114960 399.820435,435.016174 
	C399.203003,439.526520 396.523407,443.754578 394.607605,448.546356 
	C400.292755,454.643005 402.058228,462.369415 398.015350,470.774750 
	C393.845276,479.444458 386.532349,483.212677 376.974579,483.063049 
	C368.343719,482.927856 359.709076,483.034515 350.827515,483.034515 
	C350.827515,484.753754 350.827515,486.127136 350.827515,487.834351 
	C359.458588,487.834351 367.797455,488.314911 376.047272,487.664978 
	C381.523438,487.233551 386.872192,485.184937 392.862488,483.411072 
M441.372681,493.085938 
	C450.596741,498.698883 460.459869,501.100708 471.343323,500.088135 
	C495.549683,497.835968 513.747192,476.675171 512.943787,451.274414 
	C512.211731,428.134613 491.480286,407.671814 468.278931,407.188446 
	C446.783936,406.740631 428.549438,419.585632 421.999420,439.789185 
	C415.612152,459.490875 423.055450,480.482117 441.372681,493.085938 
M539.076660,482.432861 
	C551.445801,495.897003 566.500000,500.884430 584.502991,497.151733 
	C587.915833,496.444122 588.566650,494.994080 587.894531,493.057190 
	C580.101624,493.057190 572.502197,494.286072 565.471497,492.808655 
	C549.427612,489.437286 538.378418,479.525330 534.596619,463.223816 
	C531.017273,447.794495 534.969910,434.021118 547.195129,423.603210 
	C561.121399,411.735748 577.114685,410.596497 593.371155,417.759796 
	C609.186584,424.728668 615.951172,438.010895 616.040833,454.932465 
	C616.109619,467.921051 616.053040,480.910278 616.070923,493.899170 
	C616.071777,494.538422 616.251648,495.177429 616.380737,496.031921 
	C617.759949,495.929169 618.997314,495.836975 620.483826,495.726227 
	C620.483826,481.942413 620.486389,468.468750 620.483276,454.995087 
	C620.477600,430.753052 607.050110,414.464905 583.275757,409.855133 
	C564.155945,406.147858 545.140442,414.201263 535.424438,430.121033 
	C525.458374,446.450470 526.693359,466.611298 539.076660,482.432861 
M351.354614,475.079285 
	C351.143158,476.477692 350.931702,477.876099 350.759888,479.012482 
	C360.839844,479.012482 370.164490,479.276459 379.466736,478.933197 
	C387.644775,478.631409 393.472473,473.982880 395.540771,467.043884 
	C397.838928,459.333740 395.694366,453.655579 388.263916,448.107269 
	C388.723297,447.627014 389.122437,447.114349 389.612244,446.712189 
	C395.701843,441.712463 397.612030,435.140686 395.291321,427.925629 
	C392.965393,420.694244 387.448822,416.417053 379.698914,415.935272 
	C373.227814,415.533051 366.724121,415.608917 360.234253,415.565735 
	C352.128510,415.511780 344.022156,415.552765 335.741272,415.552765 
	C335.741272,442.597900 335.741272,469.042297 335.741272,495.679688 
	C337.195190,495.679688 338.519989,495.679688 340.252960,495.679688 
	C340.252960,470.285034 340.252960,445.214294 340.252960,420.009766 
	C352.823364,420.009766 364.979279,419.862976 377.129730,420.058136 
	C386.192200,420.203705 392.182709,426.376160 391.528931,434.364838 
	C390.961731,441.296021 385.649414,445.878143 377.780548,445.967407 
	C368.822510,446.069000 359.862396,445.990875 350.990723,445.990875 
	C349.929230,449.381042 350.785004,450.577301 354.093048,450.506409 
	C362.420990,450.327972 370.760437,450.265808 379.085785,450.497253 
	C388.756592,450.766083 394.123901,458.136902 390.864838,466.718475 
	C388.453186,473.068787 382.829193,474.801086 376.709869,474.944153 
	C368.549133,475.134979 360.380676,474.994904 351.354614,475.079285 
M102.518860,407.163940 
	C98.568352,407.163940 94.617851,407.163940 90.458717,407.163940 
	C90.458717,437.077026 90.458717,466.444397 90.458717,496.042358 
	C92.020027,495.953094 93.273468,495.881439 94.936203,495.786377 
	C94.936203,467.742554 94.936203,440.021362 94.936203,411.966827 
	C109.820496,411.966827 124.275970,411.956238 138.731430,411.970032 
	C151.342728,411.982086 161.783768,422.089905 161.952591,434.419922 
	C162.135651,447.790405 152.297623,458.042358 139.107178,458.153473 
	C131.447678,458.217987 123.787285,458.171478 116.127464,458.210815 
	C115.688637,458.213074 115.251480,458.539673 114.761353,458.736267 
	C114.761353,460.071747 114.761353,461.325439 114.761353,462.966187 
	C123.151344,462.966187 131.275665,463.052490 139.397522,462.947601 
	C154.755508,462.749298 166.683151,450.133270 166.523605,434.379944 
	C166.373947,419.600494 153.879852,407.226166 138.984039,407.172577 
	C127.160736,407.130005 115.337151,407.163940 102.518860,407.163940 
M546.226562,429.728241 
	C535.302124,443.766052 534.169250,460.823669 543.273865,474.187805 
	C552.122009,487.175476 568.893005,493.166412 584.215637,488.992004 
	C587.385193,488.128479 588.949707,486.847504 587.440186,483.448792 
	C586.164795,483.829041 584.909790,484.221222 583.644653,484.577576 
	C570.230713,488.356110 554.570740,483.069855 547.280212,472.307831 
	C539.361145,460.618103 540.023926,444.953308 548.910522,433.776428 
	C557.459412,423.024323 572.739380,419.117676 586.977417,424.043823 
	C599.830322,428.490784 607.798767,440.060120 607.947876,454.881989 
	C608.078552,467.870605 607.973022,480.861603 607.986511,493.851532 
	C607.987183,494.493286 608.128113,495.134918 608.206116,495.796448 
	C609.621826,495.796448 610.872681,495.796448 612.217224,495.796448 
	C612.217224,481.111725 612.409058,466.648071 612.097778,452.195221 
	C612.006897,447.977600 611.096252,443.542419 609.514099,439.630524 
	C599.598877,415.115570 566.346069,409.683411 546.226562,429.728241 
M665.500000,419.983124 
	C656.744812,419.983124 647.989624,419.983124 639.228760,419.983124 
	C639.228760,445.638062 639.228760,470.597382 639.228760,495.783813 
	C640.626892,495.783813 641.866455,495.783813 643.611328,495.783813 
	C643.611328,472.051331 643.611328,448.470856 643.611328,424.843109 
	C659.898376,424.843109 675.681396,424.820435 691.463928,424.885651 
	C692.739746,424.890930 694.065247,425.367432 695.279236,425.848297 
	C704.810547,429.623444 709.752075,438.324310 707.993835,448.127075 
	C706.397583,457.026764 697.935608,463.867981 688.205688,463.965027 
	C679.579529,464.051086 670.951782,463.983063 662.324768,463.983063 
	C662.057434,464.576691 661.790161,465.170288 661.522827,465.763916 
	C662.842163,466.663147 664.139038,468.299500 665.484436,468.340485 
	C673.476257,468.583923 681.489807,468.718781 689.476318,468.398132 
	C703.054443,467.852936 713.270142,456.587708 712.929443,442.963715 
	C712.622131,430.671204 701.524109,420.186859 688.497803,420.005219 
	C681.166504,419.903015 673.832703,419.984436 665.500000,419.983124 
M103.833603,415.552795 
	C102.218765,415.552795 100.603928,415.552795 98.833557,415.552795 
	C98.833557,442.645050 98.833557,469.203247 98.833557,495.719788 
	C100.347168,495.719788 101.577675,495.719788 103.199432,495.719788 
	C103.199432,470.360962 103.199432,445.284363 103.199432,420.011780 
	C115.251434,420.011780 126.901253,419.817749 138.541046,420.075836 
	C147.159668,420.266998 153.657440,427.032654 153.526093,434.995453 
	C153.373001,444.276215 147.513306,449.933167 137.922668,449.983124 
	C130.286331,450.022888 122.649612,449.991089 114.560127,449.991089 
	C114.712341,451.708893 114.830284,453.040009 114.954971,454.447205 
	C116.464256,454.447205 117.457924,454.447235 118.451591,454.447205 
	C125.283920,454.447021 132.118591,454.561127 138.948044,454.420410 
	C149.727524,454.198303 157.431503,446.867950 157.928558,436.569000 
	C158.460861,425.540253 151.593887,416.698944 140.725052,416.023499 
	C128.775681,415.280853 116.756493,415.661560 103.833603,415.552795 
M577.313354,482.029785 
	C579.763062,481.612183 582.246521,481.332214 584.653931,480.742096 
	C587.671082,480.002594 589.239380,478.389404 587.127991,475.182800 
	C585.876221,475.625214 584.639954,476.092743 583.384583,476.501160 
	C566.001648,482.156769 548.682434,469.894043 550.047974,452.903534 
	C551.134094,439.388885 561.519409,430.105286 575.112000,430.498260 
	C589.915344,430.926300 599.128357,440.110443 599.174805,454.570007 
	C599.217041,467.719421 599.181335,480.869080 599.207275,494.018585 
	C599.208496,494.632141 599.475159,495.245178 599.603027,495.793365 
	C601.077759,495.793365 602.341309,495.793365 603.951050,495.793365 
	C603.951050,481.607635 604.155457,467.650574 603.886963,453.702576 
	C603.668274,442.337708 598.847229,433.380341 588.022095,428.796906 
	C576.498535,423.917725 565.261414,424.350494 555.317017,432.775330 
	C546.096436,440.586823 543.924805,450.847198 546.752869,462.099457 
	C550.055054,475.237976 560.506714,481.999023 577.313354,482.029785 
M701.011902,434.551910 
	C697.339966,432.479248 693.748962,428.809601 689.981689,428.618622 
	C675.922729,427.905975 661.806030,428.333923 647.463501,428.333923 
	C647.463501,451.070038 647.463501,473.436554 647.463501,495.825317 
	C649.022034,495.825317 650.295044,495.825317 652.119873,495.825317 
	C652.119873,474.769653 652.119873,453.914398 652.119873,432.956726 
	C664.651611,432.956726 676.630676,432.855225 688.606689,432.999969 
	C694.515320,433.071350 699.671997,438.075989 699.960449,443.517059 
	C700.289001,449.713989 696.109070,454.501801 689.545776,455.270782 
	C687.407715,455.521271 685.230042,455.481140 683.070129,455.488983 
	C676.273438,455.513733 669.476562,455.498138 662.436279,455.498138 
	C662.436279,457.171112 662.436279,458.397583 662.436279,460.026459 
	C671.199768,460.026459 679.827332,460.065857 688.454285,460.013428 
	C694.813660,459.974731 699.847168,457.226746 702.664978,451.557159 
	C705.409912,446.034058 705.462891,440.335571 701.011902,434.551910 
M121.519409,428.830688 
	C127.182739,428.831390 132.846497,428.874847 138.509262,428.818756 
	C142.819031,428.776093 145.044312,430.816223 145.019592,435.128845 
	C144.994766,439.459595 142.850311,441.335510 138.420517,441.223846 
	C130.638824,441.027710 122.848640,441.169067 114.840088,441.169067 
	C114.840088,442.980133 114.840088,444.350586 114.840088,445.962341 
	C123.325699,445.962341 131.471100,446.019409 139.615250,445.943848 
	C145.831741,445.886139 149.128494,442.574402 149.763870,435.999969 
	C150.286438,430.592804 146.406769,424.524445 141.143753,424.304535 
	C129.902359,423.834839 118.627708,424.160797 107.310036,424.160797 
	C107.310036,448.378418 107.310036,472.118805 107.310036,496.184875 
	C108.995552,495.967926 110.370033,495.791016 112.120865,495.565674 
	C112.120865,473.104980 112.120865,451.043854 112.120865,428.830688 
	C115.212624,428.830688 117.868477,428.830688 121.519409,428.830688 
M344.045166,447.500000 
	C344.045166,463.604919 344.045166,479.709808 344.045166,496.181213 
	C345.968201,495.954437 347.336823,495.793030 349.070312,495.588623 
	C349.070312,473.141632 349.070312,451.086670 349.070312,428.821411 
	C358.626862,428.821411 367.766144,428.819916 376.905396,428.822296 
	C379.827393,428.823059 382.896332,428.817902 383.075012,432.817749 
	C383.269531,437.172913 379.920258,437.399933 376.883575,437.447388 
	C369.227295,437.567047 361.565216,437.615173 353.911041,437.444275 
	C350.399933,437.365845 349.997101,438.839783 350.906982,441.664459 
	C351.534698,441.777924 352.006531,441.936768 352.478699,441.937653 
	C361.302155,441.954193 370.126801,442.038086 378.948730,441.921631 
	C384.311493,441.850830 387.530731,438.742950 387.819855,433.784851 
	C388.104095,428.910461 384.764557,424.396362 379.665039,424.246552 
	C367.916962,423.901489 356.151825,424.137085 344.546753,424.137085 
	C344.290466,424.921539 344.106903,425.223267 344.105530,425.525848 
	C344.073425,432.517181 344.061127,439.508606 344.045166,447.500000 
M595.471069,468.502197 
	C595.335083,462.520721 595.646667,456.487671 594.964294,450.569183 
	C593.770142,440.212769 584.983276,433.770203 573.506409,434.203766 
	C562.962219,434.602081 554.525452,442.514771 554.102600,452.624146 
	C553.793091,460.022614 555.781494,466.607452 562.512390,470.645569 
	C570.013977,475.146149 578.023987,475.224915 585.959839,471.916443 
	C587.165161,471.413940 587.609070,469.085205 588.768860,466.923248 
	C584.489990,468.124084 581.521362,469.210724 578.456482,469.767426 
	C570.851318,471.148926 563.022461,467.512115 560.220825,461.547760 
	C557.153931,455.018646 558.530701,447.508057 563.802246,442.864594 
	C569.457275,437.883331 575.923157,437.814423 582.471802,440.530212 
	C588.560242,443.055145 590.944031,448.198334 590.965271,454.532257 
	C591.009399,467.687378 590.975586,480.842682 590.993530,493.997894 
	C590.994446,494.635559 591.183350,495.272949 591.311951,496.081329 
	C592.712036,495.962860 593.960938,495.857208 595.470947,495.729462 
	C595.470947,486.786896 595.470947,478.144165 595.471069,468.502197 
M660.035583,495.725098 
	C660.177856,484.594208 660.350464,473.463593 660.451050,462.332336 
	C660.512268,455.554382 660.462341,448.775452 660.462341,441.463745 
	C669.606995,441.463745 678.220337,441.335999 686.822632,441.585480 
	C688.309998,441.628632 690.868347,443.129822 691.003296,444.200562 
	C691.403992,447.380829 688.633362,447.066986 686.467712,447.067719 
	C678.511902,447.070435 670.556091,447.068817 662.689331,447.068817 
	C661.727356,450.283325 662.028870,452.080353 665.576538,451.822693 
	C667.895813,451.654327 670.237427,451.799194 672.568909,451.789856 
	C678.063538,451.767914 683.574036,451.984192 689.047852,451.632751 
	C693.432068,451.351288 696.000366,448.810791 695.941406,444.103119 
	C695.885010,439.599213 693.277832,437.172943 689.174133,437.078583 
	C678.237976,436.827118 667.292297,436.993011 655.984558,436.993011 
	C655.984558,456.193115 655.947327,474.970490 656.119324,493.745972 
	C656.126282,494.504608 658.110229,495.245209 660.035583,495.725098 
M249.006409,411.314789 
	C247.635727,411.314789 246.265045,411.314789 244.650452,411.314789 
	C244.978882,412.401947 245.035400,412.917755 245.273056,413.328766 
	C260.729828,440.061646 276.152008,466.814972 291.795563,493.438202 
	C292.718933,495.009644 295.434509,495.527985 297.316071,496.536407 
	C297.593414,496.074493 297.870758,495.612549 298.148102,495.150635 
	C281.984253,467.312073 265.820374,439.473541 249.006409,411.314789 
M274.171051,480.431000 
	C276.500275,484.450012 278.959778,488.400726 281.115295,492.510834 
	C282.690674,495.514771 284.583435,497.066101 288.284821,495.462982 
	C272.426727,468.049652 256.696686,440.761505 240.772919,413.586884 
	C239.885010,412.071625 237.396271,411.494415 235.652618,410.480621 
	C235.275803,410.928467 234.898972,411.376312 234.522156,411.824158 
	C247.632172,434.472900 260.742218,457.121643 274.171051,480.431000 
M213.836044,484.474609 
	C213.836029,461.502411 213.845490,438.530212 213.828140,415.558014 
	C213.824615,410.894562 213.778046,410.894592 209.238617,411.925415 
	C209.238617,439.825775 209.238617,467.739319 209.238617,495.989380 
	C210.832397,495.914124 212.199249,495.849548 213.836044,495.772247 
	C213.836044,492.078369 213.836044,488.771210 213.836044,484.474609 
M196.859970,421.544617 
	C196.859787,419.217194 196.757172,416.884247 196.882202,414.563568 
	C197.096405,410.587921 195.120346,410.695679 192.361404,411.693024 
	C192.361404,439.884674 192.361404,467.762054 192.361404,496.031281 
	C193.960678,495.923004 195.312057,495.831543 196.859970,495.726746 
	C196.859970,471.043640 196.859970,446.788086 196.859970,421.544617 
M183.998917,465.500000 
	C183.998917,475.614807 183.998917,485.729645 183.998917,496.063995 
	C185.690002,495.932800 186.934433,495.836273 188.212784,495.737091 
	C188.212784,467.529419 188.212784,439.632660 188.212784,411.487549 
	C186.777939,411.487549 185.562149,411.487549 183.998917,411.487549 
	C183.998917,429.281738 183.998917,446.890869 183.998917,465.500000 
M200.567551,415.021912 
	C200.567551,441.930237 200.567551,468.838562 200.567551,495.725555 
	C202.323730,495.725555 203.556488,495.725555 204.828583,495.725555 
	C204.828583,467.532349 204.828583,439.610779 204.828583,411.689178 
	C204.429138,411.342590 204.029694,410.996002 203.630249,410.649414 
	C202.609711,411.811859 201.589157,412.974335 200.567551,415.021912 
M357.656952,466.169312 
	C355.394257,466.169312 353.131531,466.169312 350.759094,466.169312 
	C350.759094,468.052521 350.759094,469.305725 350.759094,470.472015 
	C351.310699,470.686127 351.605316,470.898376 351.901642,470.900818 
	C356.396118,470.937561 360.890900,470.964935 365.385529,470.957672 
	C370.213348,470.949890 375.058990,471.152435 379.864014,470.806580 
	C385.040955,470.433960 387.842072,467.204437 387.860840,462.369293 
	C387.879395,457.586884 385.227478,454.267273 380.387573,454.141083 
	C370.607758,453.886139 360.816589,454.065094 350.855591,454.065094 
	C350.855591,455.805328 350.855591,457.177795 350.855591,458.831177 
	C360.179718,458.831177 369.148560,458.811157 378.117188,458.845062 
	C380.404602,458.853699 383.090088,458.441223 383.094849,462.045990 
	C383.099304,465.423004 380.887787,466.161469 378.096008,466.163422 
	C371.602417,466.167877 365.108826,466.167633 357.656952,466.169312 
M233.063568,452.500183 
	C233.063568,466.925873 233.063568,481.351562 233.063568,496.034454 
	C234.750626,495.917297 235.984802,495.831573 237.465958,495.728699 
	C237.465958,476.827972 237.601395,458.228821 237.315140,439.636169 
	C237.273773,436.948883 235.207397,434.292816 234.078110,431.622314 
	C233.739929,431.769592 233.401749,431.916901 233.063568,432.064209 
	C233.063568,438.542938 233.063568,445.021637 233.063568,452.500183 
z"/>
<path fill="#E7E7E7" opacity="1.000000" stroke="none" 
	d="
M716.101013,449.687500 
	C719.920898,435.118805 708.814880,416.972656 689.524536,416.137238 
	C672.896545,415.417084 656.213806,415.959778 639.555298,415.944458 
	C638.241943,415.943237 636.928589,415.944336 635.028076,415.944336 
	C635.028076,429.408722 635.028076,442.670807 635.028076,455.932861 
	C635.028076,469.080902 635.028076,482.228943 635.028076,495.700500 
	C633.518494,495.700500 632.186279,495.700500 630.753296,495.700500 
	C630.753296,467.588470 630.753296,439.657104 630.753296,411.191986 
	C636.754211,411.191986 642.528503,411.132080 648.301208,411.203766 
	C662.941895,411.385559 677.632935,410.944427 692.207458,412.037659 
	C706.435059,413.104858 718.246887,424.169098 720.707825,437.457916 
	C723.189941,450.860962 718.694824,464.470947 705.896179,472.247131 
	C705.472900,472.504272 705.093750,472.834076 704.275879,473.439606 
	C707.037170,480.670990 709.842163,488.016907 712.777954,495.705261 
	C711.080994,495.705261 709.563110,495.705261 707.932190,495.705261 
	C705.229248,488.922638 702.534424,482.160339 699.686096,475.012909 
	C698.648376,475.495728 697.699280,475.937286 696.600708,476.448395 
	C699.129639,482.925476 701.586487,489.217834 704.042114,495.506989 
	C700.657898,496.870941 698.989441,495.790375 697.931152,492.590271 
	C696.474548,488.185638 694.663818,483.885834 692.771179,479.645355 
	C692.218384,478.406738 690.870361,477.523102 689.886780,476.476746 
	C689.446716,476.805145 689.006653,477.133545 688.566589,477.461945 
	C690.833313,483.453186 693.099976,489.444427 695.380005,495.470734 
	C692.055664,496.962769 690.459900,495.718292 689.426331,492.620941 
	C687.957764,488.219574 686.273132,483.878540 684.424255,479.623169 
	C683.885315,478.382874 682.471985,477.522461 681.459473,476.487946 
	C681.078735,476.801270 680.697998,477.114563 680.317261,477.427887 
	C682.500061,483.466705 684.682861,489.505524 686.878784,495.580719 
	C683.803833,496.685547 681.635620,496.220428 680.998779,492.634308 
	C680.885315,491.995056 680.498901,491.407593 680.268188,490.785248 
	C678.713745,486.591980 678.266602,481.108307 675.299011,478.574310 
	C672.512329,476.194824 667.065002,476.931152 662.476074,476.250153 
	C661.568787,473.522644 662.218628,472.045593 665.855225,472.139526 
	C672.847290,472.320129 679.847229,472.195953 686.843933,472.191193 
	C701.933350,472.180878 711.774658,464.736328 716.101013,449.687500 
z"/>
<path fill="#EEEEEE" opacity="1.000000" stroke="none" 
	d="
M360.000000,398.986755 
	C368.967773,399.243011 377.710510,398.232452 385.850494,399.999115 
	C408.023285,404.811310 418.138245,425.523193 409.466278,446.282074 
	C409.045837,447.288483 409.191711,448.837067 409.661346,449.864685 
	C419.407562,471.189850 404.723541,495.161896 381.215729,495.917480 
	C371.236298,496.238190 361.238007,495.971039 351.003113,495.971039 
	C350.074341,492.990326 350.353210,491.394043 354.133301,491.484497 
	C362.293671,491.679718 370.465179,491.692749 378.626282,491.513397 
	C396.757050,491.114990 411.590088,475.198151 407.837738,458.817688 
	C406.105560,451.256134 405.659576,444.993164 407.658173,437.194702 
	C411.797516,421.043091 398.494629,404.599701 381.158661,403.801147 
	C362.225250,402.929016 343.220642,403.602875 323.709351,403.602875 
	C323.709351,434.306610 323.709351,464.867188 323.709351,495.704407 
	C321.950195,495.848389 320.701324,495.950623 319.211456,496.072571 
	C319.211456,463.764679 319.211456,431.662781 319.211456,398.986755 
	C332.641113,398.986755 346.070557,398.986755 360.000000,398.986755 
z"/>
<path fill="#E4E4E4" opacity="1.000000" stroke="none" 
	d="
M769.998657,496.034058 
	C756.554138,496.034058 743.609253,496.034058 730.426270,496.034058 
	C730.426270,467.706390 730.426270,439.810577 730.426270,411.965363 
	C730.767456,411.718109 731.029968,411.361389 731.288940,411.363953 
	C749.077942,411.540741 766.929749,410.885254 784.638428,412.181976 
	C803.875244,413.590637 819.617310,430.959167 821.020752,449.395966 
	C822.788818,472.623627 807.649658,490.435730 789.318359,494.738251 
	C783.276489,496.156372 776.784424,495.656769 769.998657,496.034058 
M807.805359,429.728302 
	C801.803040,422.587402 794.332153,417.150879 785.018860,416.753967 
	C768.468384,416.048584 751.866272,416.555847 735.164185,416.555847 
	C735.164185,441.315308 735.164185,466.214417 735.164185,491.052155 
	C752.182434,491.052155 768.963562,491.057098 785.744690,491.033539 
	C786.391541,491.032623 787.041138,490.769867 787.684265,490.608307 
	C814.783325,483.801666 825.191284,451.339172 807.805359,429.728302 
z"/>
<path fill="#EEEEEE" opacity="1.000000" stroke="none" 
	d="
M90.050934,398.986755 
	C107.039795,398.986816 123.536942,398.932434 140.033569,399.001495 
	C158.158829,399.077332 174.391434,414.836334 174.924835,432.753235 
	C175.555237,453.928680 162.401169,469.620972 142.545319,470.949615 
	C134.419327,471.493378 126.240135,471.193848 118.094215,471.510803 
	C114.744965,471.641113 114.010559,470.323151 114.907928,466.986664 
	C122.675400,466.986664 130.469315,467.090881 138.259521,466.964844 
	C154.193420,466.707123 166.731232,456.322784 169.850906,440.951752 
	C172.798676,426.427765 164.877716,411.706848 150.737610,405.773224 
	C148.180984,404.700378 145.338120,403.744141 142.617889,403.717834 
	C124.150604,403.539185 105.680771,403.624481 86.681686,403.624481 
	C86.681686,434.346008 86.681686,464.910309 86.681686,495.727570 
	C84.923721,495.847473 83.676720,495.932556 82.199341,496.033325 
	C82.199341,463.722290 82.199341,431.623108 82.199341,398.986755 
	C84.683678,398.986755 87.121338,398.986755 90.050934,398.986755 
z"/>
<path fill="#DEDEDE" opacity="1.000000" stroke="none" 
	d="
M392.570251,483.635651 
	C386.872192,485.184937 381.523438,487.233551 376.047272,487.664978 
	C367.797455,488.314911 359.458588,487.834351 350.827515,487.834351 
	C350.827515,486.127136 350.827515,484.753754 350.827515,483.034515 
	C359.709076,483.034515 368.343719,482.927856 376.974579,483.063049 
	C386.532349,483.212677 393.845276,479.444458 398.015350,470.774750 
	C402.058228,462.369415 400.292755,454.643005 394.607605,448.546356 
	C396.523407,443.754578 399.203003,439.526520 399.820435,435.016174 
	C401.312683,424.114960 392.517059,412.734131 381.524963,412.239258 
	C365.114136,411.500397 348.645416,412.047455 331.919006,412.047455 
	C331.919006,440.043427 331.919006,467.646515 331.919006,495.687592 
	C330.321320,495.806366 328.974030,495.906555 327.381317,496.024994 
	C327.381317,466.366241 327.381317,437.108521 327.381317,407.165649 
	C330.292694,407.165649 333.061035,407.165649 335.829376,407.165649 
	C349.991089,407.165680 364.153473,407.078186 378.314331,407.188446 
	C395.113922,407.319275 407.915924,422.856598 403.881683,438.342377 
	C403.026245,441.625885 401.040924,444.615051 399.456757,447.994659 
	C408.306030,460.372070 405.888733,474.224884 392.570251,483.635651 
z"/>
<path fill="#E6E6E6" opacity="1.000000" stroke="none" 
	d="
M441.067566,492.894897 
	C423.055450,480.482117 415.612152,459.490875 421.999420,439.789185 
	C428.549438,419.585632 446.783936,406.740631 468.278931,407.188446 
	C491.480286,407.671814 512.211731,428.134613 512.943787,451.274414 
	C513.747192,476.675171 495.549683,497.835968 471.343323,500.088135 
	C460.459869,501.100708 450.596741,498.698883 441.067566,492.894897 
M468.357574,411.915955 
	C465.695953,411.972168 462.984314,411.716187 460.380524,412.133331 
	C436.649628,415.934662 421.044525,437.134827 425.038818,461.053345 
	C429.430481,487.351166 454.805420,498.556458 472.913177,495.371948 
	C494.446411,491.585022 509.187897,473.492798 508.200043,450.468597 
	C507.342590,430.483978 489.873749,413.178894 468.357574,411.915955 
z"/>
<path fill="#E7E7E7" opacity="1.000000" stroke="none" 
	d="
M538.836914,482.174011 
	C526.693359,466.611298 525.458374,446.450470 535.424438,430.121033 
	C545.140442,414.201263 564.155945,406.147858 583.275757,409.855133 
	C607.050110,414.464905 620.477600,430.753052 620.483276,454.995087 
	C620.486389,468.468750 620.483826,481.942413 620.483826,495.726227 
	C618.997314,495.836975 617.759949,495.929169 616.380737,496.031921 
	C616.251648,495.177429 616.071777,494.538422 616.070923,493.899170 
	C616.053040,480.910278 616.109619,467.921051 616.040833,454.932465 
	C615.951172,438.010895 609.186584,424.728668 593.371155,417.759796 
	C577.114685,410.596497 561.121399,411.735748 547.195129,423.603210 
	C534.969910,434.021118 531.017273,447.794495 534.596619,463.223816 
	C538.378418,479.525330 549.427612,489.437286 565.471497,492.808655 
	C572.502197,494.286072 580.101624,493.057190 587.894531,493.057190 
	C588.566650,494.994080 587.915833,496.444122 584.502991,497.151733 
	C566.500000,500.884430 551.445801,495.897003 538.836914,482.174011 
z"/>
<path fill="#F0F0F0" opacity="1.000000" stroke="none" 
	d="
M351.785065,475.038147 
	C360.380676,474.994904 368.549133,475.134979 376.709869,474.944153 
	C382.829193,474.801086 388.453186,473.068787 390.864838,466.718475 
	C394.123901,458.136902 388.756592,450.766083 379.085785,450.497253 
	C370.760437,450.265808 362.420990,450.327972 354.093048,450.506409 
	C350.785004,450.577301 349.929230,449.381042 350.990723,445.990875 
	C359.862396,445.990875 368.822510,446.069000 377.780548,445.967407 
	C385.649414,445.878143 390.961731,441.296021 391.528931,434.364838 
	C392.182709,426.376160 386.192200,420.203705 377.129730,420.058136 
	C364.979279,419.862976 352.823364,420.009766 340.252960,420.009766 
	C340.252960,445.214294 340.252960,470.285034 340.252960,495.679688 
	C338.519989,495.679688 337.195190,495.679688 335.741272,495.679688 
	C335.741272,469.042297 335.741272,442.597900 335.741272,415.552765 
	C344.022156,415.552765 352.128510,415.511780 360.234253,415.565735 
	C366.724121,415.608917 373.227814,415.533051 379.698914,415.935272 
	C387.448822,416.417053 392.965393,420.694244 395.291321,427.925629 
	C397.612030,435.140686 395.701843,441.712463 389.612244,446.712189 
	C389.122437,447.114349 388.723297,447.627014 388.263916,448.107269 
	C395.694366,453.655579 397.838928,459.333740 395.540771,467.043884 
	C393.472473,473.982880 387.644775,478.631409 379.466736,478.933197 
	C370.164490,479.276459 360.839844,479.012482 350.759888,479.012482 
	C350.931702,477.876099 351.143158,476.477692 351.785065,475.038147 
z"/>
<path fill="#DDDDDD" opacity="1.000000" stroke="none" 
	d="
M103.016281,407.163940 
	C115.337151,407.163940 127.160736,407.130005 138.984039,407.172577 
	C153.879852,407.226166 166.373947,419.600494 166.523605,434.379944 
	C166.683151,450.133270 154.755508,462.749298 139.397522,462.947601 
	C131.275665,463.052490 123.151344,462.966187 114.761353,462.966187 
	C114.761353,461.325439 114.761353,460.071747 114.761353,458.736267 
	C115.251480,458.539673 115.688637,458.213074 116.127464,458.210815 
	C123.787285,458.171478 131.447678,458.217987 139.107178,458.153473 
	C152.297623,458.042358 162.135651,447.790405 161.952591,434.419922 
	C161.783768,422.089905 151.342728,411.982086 138.731430,411.970032 
	C124.275970,411.956238 109.820496,411.966827 94.936203,411.966827 
	C94.936203,440.021362 94.936203,467.742554 94.936203,495.786377 
	C93.273468,495.881439 92.020027,495.953094 90.458717,496.042358 
	C90.458717,466.444397 90.458717,437.077026 90.458717,407.163940 
	C94.617851,407.163940 98.568352,407.163940 103.016281,407.163940 
z"/>
<path fill="#E8E8E8" opacity="1.000000" stroke="none" 
	d="
M546.464783,429.467743 
	C566.346069,409.683411 599.598877,415.115570 609.514099,439.630524 
	C611.096252,443.542419 612.006897,447.977600 612.097778,452.195221 
	C612.409058,466.648071 612.217224,481.111725 612.217224,495.796448 
	C610.872681,495.796448 609.621826,495.796448 608.206116,495.796448 
	C608.128113,495.134918 607.987183,494.493286 607.986511,493.851532 
	C607.973022,480.861603 608.078552,467.870605 607.947876,454.881989 
	C607.798767,440.060120 599.830322,428.490784 586.977417,424.043823 
	C572.739380,419.117676 557.459412,423.024323 548.910522,433.776428 
	C540.023926,444.953308 539.361145,460.618103 547.280212,472.307831 
	C554.570740,483.069855 570.230713,488.356110 583.644653,484.577576 
	C584.909790,484.221222 586.164795,483.829041 587.440186,483.448792 
	C588.949707,486.847504 587.385193,488.128479 584.215637,488.992004 
	C568.893005,493.166412 552.122009,487.175476 543.273865,474.187805 
	C534.169250,460.823669 535.302124,443.766052 546.464783,429.467743 
z"/>
<path fill="#ECECEC" opacity="1.000000" stroke="none" 
	d="
M666.000000,419.983124 
	C673.832703,419.984436 681.166504,419.903015 688.497803,420.005219 
	C701.524109,420.186859 712.622131,430.671204 712.929443,442.963715 
	C713.270142,456.587708 703.054443,467.852936 689.476318,468.398132 
	C681.489807,468.718781 673.476257,468.583923 665.484436,468.340485 
	C664.139038,468.299500 662.842163,466.663147 661.522827,465.763916 
	C661.790161,465.170288 662.057434,464.576691 662.324768,463.983063 
	C670.951782,463.983063 679.579529,464.051086 688.205688,463.965027 
	C697.935608,463.867981 706.397583,457.026764 707.993835,448.127075 
	C709.752075,438.324310 704.810547,429.623444 695.279236,425.848297 
	C694.065247,425.367432 692.739746,424.890930 691.463928,424.885651 
	C675.681396,424.820435 659.898376,424.843109 643.611328,424.843109 
	C643.611328,448.470856 643.611328,472.051331 643.611328,495.783813 
	C641.866455,495.783813 640.626892,495.783813 639.228760,495.783813 
	C639.228760,470.597382 639.228760,445.638062 639.228760,419.983124 
	C647.989624,419.983124 656.744812,419.983124 666.000000,419.983124 
z"/>
<path fill="#F0F0F0" opacity="1.000000" stroke="none" 
	d="
M104.300659,415.552826 
	C116.756493,415.661560 128.775681,415.280853 140.725052,416.023499 
	C151.593887,416.698944 158.460861,425.540253 157.928558,436.569000 
	C157.431503,446.867950 149.727524,454.198303 138.948044,454.420410 
	C132.118591,454.561127 125.283920,454.447021 118.451591,454.447205 
	C117.457924,454.447235 116.464256,454.447205 114.954971,454.447205 
	C114.830284,453.040009 114.712341,451.708893 114.560127,449.991089 
	C122.649612,449.991089 130.286331,450.022888 137.922668,449.983124 
	C147.513306,449.933167 153.373001,444.276215 153.526093,434.995453 
	C153.657440,427.032654 147.159668,420.266998 138.541046,420.075836 
	C126.901253,419.817749 115.251434,420.011780 103.199432,420.011780 
	C103.199432,445.284363 103.199432,470.360962 103.199432,495.719788 
	C101.577675,495.719788 100.347168,495.719788 98.833557,495.719788 
	C98.833557,469.203247 98.833557,442.645050 98.833557,415.552795 
	C100.603928,415.552795 102.218765,415.552795 104.300659,415.552826 
z"/>
<path fill="#E4E4E4" opacity="1.000000" stroke="none" 
	d="
M576.848999,482.031738 
	C560.506714,481.999023 550.055054,475.237976 546.752869,462.099457 
	C543.924805,450.847198 546.096436,440.586823 555.317017,432.775330 
	C565.261414,424.350494 576.498535,423.917725 588.022095,428.796906 
	C598.847229,433.380341 603.668274,442.337708 603.886963,453.702576 
	C604.155457,467.650574 603.951050,481.607635 603.951050,495.793365 
	C602.341309,495.793365 601.077759,495.793365 599.603027,495.793365 
	C599.475159,495.245178 599.208496,494.632141 599.207275,494.018585 
	C599.181335,480.869080 599.217041,467.719421 599.174805,454.570007 
	C599.128357,440.110443 589.915344,430.926300 575.112000,430.498260 
	C561.519409,430.105286 551.134094,439.388885 550.047974,452.903534 
	C548.682434,469.894043 566.001648,482.156769 583.384583,476.501160 
	C584.639954,476.092743 585.876221,475.625214 587.127991,475.182800 
	C589.239380,478.389404 587.671082,480.002594 584.653931,480.742096 
	C582.246521,481.332214 579.763062,481.612183 576.848999,482.031738 
z"/>
<path fill="#ECECEC" opacity="1.000000" stroke="none" 
	d="
M244.184372,445.685577 
	C239.455704,437.488708 234.727036,429.291809 229.319839,419.918732 
	C229.319839,445.938293 229.319839,470.724091 229.319839,495.759460 
	C227.529510,495.759460 226.290283,495.759460 224.793274,495.759460 
	C224.793274,467.829895 224.793274,439.909637 224.793274,411.696106 
	C227.743713,410.633728 229.713501,411.116455 231.490967,414.222412 
	C246.753448,440.892303 262.176270,467.470398 277.540649,494.082062 
	C277.779114,494.495087 277.883484,494.985535 278.095856,495.563477 
	C274.841858,496.848267 273.069000,495.676636 271.421783,492.777435 
	C262.562958,477.185333 253.507584,461.704895 244.281235,445.869751 
	C244.042419,445.553558 244.184372,445.685577 244.184372,445.685577 
z"/>
<path fill="#E2E2E2" opacity="1.000000" stroke="none" 
	d="
M701.241699,434.835144 
	C705.462891,440.335571 705.409912,446.034058 702.664978,451.557159 
	C699.847168,457.226746 694.813660,459.974731 688.454285,460.013428 
	C679.827332,460.065857 671.199768,460.026459 662.436279,460.026459 
	C662.436279,458.397583 662.436279,457.171112 662.436279,455.498138 
	C669.476562,455.498138 676.273438,455.513733 683.070129,455.488983 
	C685.230042,455.481140 687.407715,455.521271 689.545776,455.270782 
	C696.109070,454.501801 700.289001,449.713989 699.960449,443.517059 
	C699.671997,438.075989 694.515320,433.071350 688.606689,432.999969 
	C676.630676,432.855225 664.651611,432.956726 652.119873,432.956726 
	C652.119873,453.914398 652.119873,474.769653 652.119873,495.825317 
	C650.295044,495.825317 649.022034,495.825317 647.463501,495.825317 
	C647.463501,473.436554 647.463501,451.070038 647.463501,428.333923 
	C661.806030,428.333923 675.922729,427.905975 689.981689,428.618622 
	C693.748962,428.809601 697.339966,432.479248 701.241699,434.835144 
z"/>
<path fill="#ECECEC" opacity="1.000000" stroke="none" 
	d="
M295.900635,471.928375 
	C296.202667,473.291595 296.226654,474.802704 296.858490,475.990448 
	C298.806030,479.651215 300.985748,483.188416 303.690002,487.828430 
	C303.690002,461.786896 303.690002,436.826599 303.690002,411.866272 
	C304.155396,411.524048 304.620819,411.181793 305.086212,410.839539 
	C306.062469,411.803192 307.886078,412.762054 307.891510,413.731171 
	C308.044983,441.035828 308.014923,468.341522 308.014923,497.435150 
	C305.103210,495.569061 302.441559,494.803375 301.427551,493.072479 
	C285.975952,466.697449 270.738220,440.197113 255.464249,413.718109 
	C255.146072,413.166504 254.990631,412.521027 254.759262,411.919312 
	C255.069336,411.481110 255.379425,411.042877 255.689514,410.604645 
	C257.475403,411.802002 259.941772,412.592407 260.939728,414.261017 
	C269.042633,427.809326 276.859161,441.528717 284.801147,455.173767 
	C285.529907,456.425842 286.525055,457.522888 287.652771,458.366211 
	C287.908997,458.040436 287.872864,457.982513 287.872864,457.982513 
	C288.229431,459.468292 288.277039,461.129456 289.001862,462.406158 
	C290.982178,465.894440 293.247955,469.220642 295.691101,472.276123 
	C295.981537,471.941223 295.900635,471.928375 295.900635,471.928375 
z"/>
<path fill="#DFDFDF" opacity="1.000000" stroke="none" 
	d="
M121.021873,428.830688 
	C117.868477,428.830688 115.212624,428.830688 112.120865,428.830688 
	C112.120865,451.043854 112.120865,473.104980 112.120865,495.565674 
	C110.370033,495.791016 108.995552,495.967926 107.310036,496.184875 
	C107.310036,472.118805 107.310036,448.378418 107.310036,424.160797 
	C118.627708,424.160797 129.902359,423.834839 141.143753,424.304535 
	C146.406769,424.524445 150.286438,430.592804 149.763870,435.999969 
	C149.128494,442.574402 145.831741,445.886139 139.615250,445.943848 
	C131.471100,446.019409 123.325699,445.962341 114.840088,445.962341 
	C114.840088,444.350586 114.840088,442.980133 114.840088,441.169067 
	C122.848640,441.169067 130.638824,441.027710 138.420517,441.223846 
	C142.850311,441.335510 144.994766,439.459595 145.019592,435.128845 
	C145.044312,430.816223 142.819031,428.776093 138.509262,428.818756 
	C132.846497,428.874847 127.182739,428.831390 121.021873,428.830688 
z"/>
<path fill="#E2E2E2" opacity="1.000000" stroke="none" 
	d="
M344.045166,447.000000 
	C344.061127,439.508606 344.073425,432.517181 344.105530,425.525848 
	C344.106903,425.223267 344.290466,424.921539 344.546753,424.137085 
	C356.151825,424.137085 367.916962,423.901489 379.665039,424.246552 
	C384.764557,424.396362 388.104095,428.910461 387.819855,433.784851 
	C387.530731,438.742950 384.311493,441.850830 378.948730,441.921631 
	C370.126801,442.038086 361.302155,441.954193 352.478699,441.937653 
	C352.006531,441.936768 351.534698,441.777924 350.906982,441.664459 
	C349.997101,438.839783 350.399933,437.365845 353.911041,437.444275 
	C361.565216,437.615173 369.227295,437.567047 376.883575,437.447388 
	C379.920258,437.399933 383.269531,437.172913 383.075012,432.817749 
	C382.896332,428.817902 379.827393,428.823059 376.905396,428.822296 
	C367.766144,428.819916 358.626862,428.821411 349.070312,428.821411 
	C349.070312,451.086670 349.070312,473.141632 349.070312,495.588623 
	C347.336823,495.793030 345.968201,495.954437 344.045166,496.181213 
	C344.045166,479.709808 344.045166,463.604919 344.045166,447.000000 
z"/>
<path fill="#EAEAEA" opacity="1.000000" stroke="none" 
	d="
M595.471008,469.001801 
	C595.470947,478.144165 595.470947,486.786896 595.470947,495.729462 
	C593.960938,495.857208 592.712036,495.962860 591.311951,496.081329 
	C591.183350,495.272949 590.994446,494.635559 590.993530,493.997894 
	C590.975586,480.842682 591.009399,467.687378 590.965271,454.532257 
	C590.944031,448.198334 588.560242,443.055145 582.471802,440.530212 
	C575.923157,437.814423 569.457275,437.883331 563.802246,442.864594 
	C558.530701,447.508057 557.153931,455.018646 560.220825,461.547760 
	C563.022461,467.512115 570.851318,471.148926 578.456482,469.767426 
	C581.521362,469.210724 584.489990,468.124084 588.768860,466.923248 
	C587.609070,469.085205 587.165161,471.413940 585.959839,471.916443 
	C578.023987,475.224915 570.013977,475.146149 562.512390,470.645569 
	C555.781494,466.607452 553.793091,460.022614 554.102600,452.624146 
	C554.525452,442.514771 562.962219,434.602081 573.506409,434.203766 
	C584.983276,433.770203 593.770142,440.212769 594.964294,450.569183 
	C595.646667,456.487671 595.335083,462.520721 595.471008,469.001801 
z"/>
<path fill="#ECECEC" opacity="1.000000" stroke="none" 
	d="
M659.604370,495.859680 
	C658.110229,495.245209 656.126282,494.504608 656.119324,493.745972 
	C655.947327,474.970490 655.984558,456.193115 655.984558,436.993011 
	C667.292297,436.993011 678.237976,436.827118 689.174133,437.078583 
	C693.277832,437.172943 695.885010,439.599213 695.941406,444.103119 
	C696.000366,448.810791 693.432068,451.351288 689.047852,451.632751 
	C683.574036,451.984192 678.063538,451.767914 672.568909,451.789856 
	C670.237427,451.799194 667.895813,451.654327 665.576538,451.822693 
	C662.028870,452.080353 661.727356,450.283325 662.689331,447.068817 
	C670.556091,447.068817 678.511902,447.070435 686.467712,447.067719 
	C688.633362,447.066986 691.403992,447.380829 691.003296,444.200562 
	C690.868347,443.129822 688.309998,441.628632 686.822632,441.585480 
	C678.220337,441.335999 669.606995,441.463745 660.462341,441.463745 
	C660.462341,448.775452 660.512268,455.554382 660.451050,462.332336 
	C660.350464,473.463593 660.177856,484.594208 659.604370,495.859680 
z"/>
<path fill="#E6E6E6" opacity="1.000000" stroke="none" 
	d="
M249.331451,411.474915 
	C265.820374,439.473541 281.984253,467.312073 298.148102,495.150635 
	C297.870758,495.612549 297.593414,496.074493 297.316071,496.536407 
	C295.434509,495.527985 292.718933,495.009644 291.795563,493.438202 
	C276.152008,466.814972 260.729828,440.061646 245.273056,413.328766 
	C245.035400,412.917755 244.978882,412.401947 244.650452,411.314789 
	C246.265045,411.314789 247.635727,411.314789 249.331451,411.474915 
z"/>
<path fill="#E6E6E6" opacity="1.000000" stroke="none" 
	d="
M274.011658,480.100708 
	C260.742218,457.121643 247.632172,434.472900 234.522156,411.824158 
	C234.898972,411.376312 235.275803,410.928467 235.652618,410.480621 
	C237.396271,411.494415 239.885010,412.071625 240.772919,413.586884 
	C256.696686,440.761505 272.426727,468.049652 288.284821,495.462982 
	C284.583435,497.066101 282.690674,495.514771 281.115295,492.510834 
	C278.959778,488.400726 276.500275,484.450012 274.011658,480.100708 
z"/>
<path fill="#DDDDDD" opacity="1.000000" stroke="none" 
	d="
M213.836044,484.969330 
	C213.836044,488.771210 213.836044,492.078369 213.836044,495.772247 
	C212.199249,495.849548 210.832397,495.914124 209.238617,495.989380 
	C209.238617,467.739319 209.238617,439.825775 209.238617,411.925415 
	C213.778046,410.894592 213.824615,410.894562 213.828140,415.558014 
	C213.845490,438.530212 213.836029,461.502411 213.836044,484.969330 
z"/>
<path fill="#D5D5D5" opacity="1.000000" stroke="none" 
	d="
M196.859970,422.038574 
	C196.859970,446.788086 196.859970,471.043640 196.859970,495.726746 
	C195.312057,495.831543 193.960678,495.923004 192.361404,496.031281 
	C192.361404,467.762054 192.361404,439.884674 192.361404,411.693024 
	C195.120346,410.695679 197.096405,410.587921 196.882202,414.563568 
	C196.757172,416.884247 196.859787,419.217194 196.859970,422.038574 
z"/>
<path fill="#F4F4F4" opacity="1.000000" stroke="none" 
	d="
M183.998917,465.000000 
	C183.998917,446.890869 183.998917,429.281738 183.998917,411.487549 
	C185.562149,411.487549 186.777939,411.487549 188.212784,411.487549 
	C188.212784,439.632660 188.212784,467.529419 188.212784,495.737091 
	C186.934433,495.836273 185.690002,495.932800 183.998917,496.063995 
	C183.998917,485.729645 183.998917,475.614807 183.998917,465.000000 
z"/>
<path fill="#F4F4F4" opacity="1.000000" stroke="none" 
	d="
M200.568085,414.579346 
	C201.589157,412.974335 202.609711,411.811859 203.630249,410.649414 
	C204.029694,410.996002 204.429138,411.342590 204.828583,411.689178 
	C204.828583,439.610779 204.828583,467.532349 204.828583,495.725555 
	C203.556488,495.725555 202.323730,495.725555 200.567551,495.725555 
	C200.567551,468.838562 200.567551,441.930237 200.568085,414.579346 
z"/>
<path fill="#DFDFDF" opacity="1.000000" stroke="none" 
	d="
M358.136108,466.169312 
	C365.108826,466.167633 371.602417,466.167877 378.096008,466.163422 
	C380.887787,466.161469 383.099304,465.423004 383.094849,462.045990 
	C383.090088,458.441223 380.404602,458.853699 378.117188,458.845062 
	C369.148560,458.811157 360.179718,458.831177 350.855591,458.831177 
	C350.855591,457.177795 350.855591,455.805328 350.855591,454.065094 
	C360.816589,454.065094 370.607758,453.886139 380.387573,454.141083 
	C385.227478,454.267273 387.879395,457.586884 387.860840,462.369293 
	C387.842072,467.204437 385.040955,470.433960 379.864014,470.806580 
	C375.058990,471.152435 370.213348,470.949890 365.385529,470.957672 
	C360.890900,470.964935 356.396118,470.937561 351.901642,470.900818 
	C351.605316,470.898376 351.310699,470.686127 350.759094,470.472015 
	C350.759094,469.305725 350.759094,468.052521 350.759094,466.169312 
	C353.131531,466.169312 355.394257,466.169312 358.136108,466.169312 
z"/>
<path fill="#DDDDDD" opacity="1.000000" stroke="none" 
	d="
M295.983429,471.982147 
	C295.711517,468.773987 295.216522,465.525970 295.201050,462.275665 
	C295.121124,445.480255 295.163940,428.684235 295.163940,411.532440 
	C296.855377,411.532440 298.203369,411.532440 299.761353,411.532440 
	C299.761353,432.933990 299.761353,454.160278 299.761353,476.508118 
	C298.358612,474.429932 297.502533,473.161682 296.273560,471.910889 
	C295.900635,471.928375 295.981537,471.941223 295.983429,471.982147 
z"/>
<path fill="#EAEAEA" opacity="1.000000" stroke="none" 
	d="
M233.063568,452.000275 
	C233.063568,445.021637 233.063568,438.542938 233.063568,432.064209 
	C233.401749,431.916901 233.739929,431.769592 234.078110,431.622314 
	C235.207397,434.292816 237.273773,436.948883 237.315140,439.636169 
	C237.601395,458.228821 237.465958,476.827972 237.465958,495.728699 
	C235.984802,495.831573 234.750626,495.917297 233.063568,496.034454 
	C233.063568,481.351562 233.063568,466.925873 233.063568,452.000275 
z"/>
<path fill="#DDDDDD" opacity="1.000000" stroke="none" 
	d="
M243.923553,446.081512 
	C244.184372,445.685577 244.042419,445.553558 244.066956,445.517700 
	C244.033020,446.798920 243.732315,448.160583 243.965210,449.423920 
	C244.492722,452.285553 245.823975,455.089264 245.873413,457.933136 
	C246.090134,470.401215 245.966797,482.875214 245.966797,495.747650 
	C244.416168,495.844910 243.047653,495.930725 241.163956,496.048889 
	C241.163956,482.080566 241.163742,468.469452 241.164185,454.858337 
	C241.164246,452.693848 240.956421,450.496796 241.283325,448.382599 
	C241.397751,447.642609 242.831467,447.106598 243.923553,446.081512 
z"/>
<path fill="#F4F4F4" opacity="1.000000" stroke="none" 
	d="
M287.939148,458.056396 
	C287.969330,442.591431 287.969330,427.110474 287.969330,411.365326 
	C290.291412,410.583313 291.505585,411.408417 291.481506,414.700623 
	C291.369690,429.978210 291.432068,445.257080 291.432068,461.627075 
	C290.079071,459.763550 289.295013,458.683655 288.191925,457.793152 
	C287.872864,457.982513 287.908997,458.040436 287.939148,458.056396 
z"/>
<path fill="#0A0A0A" opacity="1.000000" stroke="none" 
	d="
M808.015015,430.019745 
	C825.191284,451.339172 814.783325,483.801666 787.684265,490.608307 
	C787.041138,490.769867 786.391541,491.032623 785.744690,491.033539 
	C768.963562,491.057098 752.182434,491.052155 735.164185,491.052155 
	C735.164185,466.214417 735.164185,441.315308 735.164185,416.555847 
	C751.866272,416.555847 768.468384,416.048584 785.018860,416.753967 
	C794.332153,417.150879 801.803040,422.587402 808.015015,430.019745 
M738.998779,433.508026 
	C738.998779,451.441589 738.998779,469.375153 738.998779,487.768677 
	C752.548767,487.768677 765.654236,487.800446 778.759460,487.761047 
	C797.531494,487.704590 812.415955,472.596527 812.428284,453.644287 
	C812.440430,434.961426 797.710571,420.127563 778.952576,420.010345 
	C768.632263,419.945862 758.311340,419.998749 747.990662,419.998718 
	C745.057495,419.998718 742.124329,419.998688 738.998779,419.998688 
	C738.998779,424.561523 738.998779,428.536346 738.998779,433.508026 
z"/>
<path fill="#0D0D0D" opacity="1.000000" stroke="none" 
	d="
M468.820251,411.916168 
	C489.873749,413.178894 507.342590,430.483978 508.200043,450.468597 
	C509.187897,473.492798 494.446411,491.585022 472.913177,495.371948 
	C454.805420,498.556458 429.430481,487.351166 425.038818,461.053345 
	C421.044525,437.134827 436.649628,415.934662 460.380524,412.133331 
	C462.984314,411.716187 465.695953,411.972168 468.820251,411.916168 
M429.007568,446.632111 
	C429.026184,451.573883 428.346832,456.637482 429.184357,461.436340 
	C432.808929,482.204956 453.923309,495.647156 474.938568,490.949554 
	C495.663361,486.316864 508.785095,464.744263 503.278076,444.358398 
	C498.663147,427.274780 483.752716,415.643585 466.387177,415.580811 
	C448.652649,415.516724 434.051758,427.344757 429.007568,446.632111 
z"/>
<path fill="#EAEAEA" opacity="1.000000" stroke="none" 
	d="
M738.998779,433.009583 
	C738.998779,428.536346 738.998779,424.561523 738.998779,419.998688 
	C742.124329,419.998688 745.057495,419.998718 747.990662,419.998718 
	C758.311340,419.998749 768.632263,419.945862 778.952576,420.010345 
	C797.710571,420.127563 812.440430,434.961426 812.428284,453.644287 
	C812.415955,472.596527 797.531494,487.704590 778.759460,487.761047 
	C765.654236,487.800446 752.548767,487.768677 738.998779,487.768677 
	C738.998779,469.375153 738.998779,451.441589 738.998779,433.009583 
M742.994995,434.541260 
	C742.994995,450.632904 742.994995,466.724579 742.994995,483.094879 
	C754.980774,483.094879 766.439026,483.097168 777.897278,483.094330 
	C794.823059,483.090118 807.925110,470.362640 808.004211,453.852264 
	C808.081909,437.632935 795.150024,424.691437 778.447632,424.441315 
	C769.292786,424.304199 760.134216,424.416412 750.977295,424.416290 
	C748.382446,424.416260 745.787598,424.416290 742.994995,424.416290 
	C742.994995,427.913788 742.994995,430.736786 742.994995,434.541260 
z"/>
<path fill="#E6E6E6" opacity="1.000000" stroke="none" 
	d="
M429.048706,446.213623 
	C434.051758,427.344757 448.652649,415.516724 466.387177,415.580811 
	C483.752716,415.643585 498.663147,427.274780 503.278076,444.358398 
	C508.785095,464.744263 495.663361,486.316864 474.938568,490.949554 
	C453.923309,495.647156 432.808929,482.204956 429.184357,461.436340 
	C428.346832,456.637482 429.026184,451.573883 429.048706,446.213623 
M437.114502,470.246582 
	C445.708435,484.234558 460.508057,490.334473 475.586121,486.103271 
	C491.034485,481.768158 501.860260,465.900665 499.921539,450.434570 
	C497.753632,433.140045 483.296997,419.595276 466.417908,420.103333 
	C438.635590,420.939575 425.525391,448.929871 437.114502,470.246582 
z"/>
<path fill="#0D0D0D" opacity="1.000000" stroke="none" 
	d="
M742.994995,434.050537 
	C742.994995,430.736786 742.994995,427.913788 742.994995,424.416290 
	C745.787598,424.416290 748.382446,424.416260 750.977295,424.416290 
	C760.134216,424.416412 769.292786,424.304199 778.447632,424.441315 
	C795.150024,424.691437 808.081909,437.632935 808.004211,453.852264 
	C807.925110,470.362640 794.823059,483.090118 777.897278,483.094330 
	C766.439026,483.097168 754.980774,483.094879 742.994995,483.094879 
	C742.994995,466.724579 742.994995,450.632904 742.994995,434.050537 
M747.085999,477.350403 
	C748.111694,478.045746 749.136597,479.342224 750.163147,479.343475 
	C760.458496,479.355835 770.769653,479.461365 781.045532,478.936096 
	C793.419373,478.303619 802.972778,468.157379 803.803955,455.485687 
	C804.627136,442.935516 796.390564,430.749542 784.309814,429.211151 
	C773.343201,427.814606 762.115417,428.456543 751.001953,428.242462 
	C749.748901,428.218292 748.490417,428.470856 747.080627,428.610321 
	C747.080627,444.795624 747.080627,460.583862 747.085999,477.350403 
z"/>
<path fill="#0D0D0D" opacity="1.000000" stroke="none" 
	d="
M436.952271,469.910767 
	C425.525391,448.929871 438.635590,420.939575 466.417908,420.103333 
	C483.296997,419.595276 497.753632,433.140045 499.921539,450.434570 
	C501.860260,465.900665 491.034485,481.768158 475.586121,486.103271 
	C460.508057,490.334473 445.708435,484.234558 436.952271,469.910767 
M485.244019,476.813812 
	C486.426819,475.644348 487.687927,474.543396 488.779968,473.294586 
	C497.118866,463.758606 498.439728,449.814087 492.078583,438.903992 
	C485.757294,428.062378 472.907867,422.120361 461.055908,424.557983 
	C448.765686,427.085693 439.346436,436.295624 437.186768,447.896881 
	C434.939240,459.970001 440.096802,472.256165 450.111725,478.686615 
	C460.842346,485.576477 473.523376,485.045044 485.244019,476.813812 
z"/>
<path fill="#E4E4E4" opacity="1.000000" stroke="none" 
	d="
M747.083313,476.861267 
	C747.080627,460.583862 747.080627,444.795624 747.080627,428.610321 
	C748.490417,428.470856 749.748901,428.218292 751.001953,428.242462 
	C762.115417,428.456543 773.343201,427.814606 784.309814,429.211151 
	C796.390564,430.749542 804.627136,442.935516 803.803955,455.485687 
	C802.972778,468.157379 793.419373,478.303619 781.045532,478.936096 
	C770.769653,479.461365 760.458496,479.355835 750.163147,479.343475 
	C749.136597,479.342224 748.111694,478.045746 747.083313,476.861267 
M761.526245,474.986115 
	C767.014648,474.985901 772.507996,475.136047 777.990356,474.954254 
	C789.582458,474.569824 798.388123,466.484222 799.059143,455.815857 
	C799.765259,444.588623 792.715088,434.168335 782.427673,433.251770 
	C772.412109,432.359406 762.254700,433.057892 751.983948,433.057892 
	C751.983948,447.120239 751.983948,460.835114 751.983948,474.986115 
	C754.960266,474.986115 757.747070,474.986115 761.526245,474.986115 
z"/>
<path fill="#E6E6E6" opacity="1.000000" stroke="none" 
	d="
M484.950317,477.026337 
	C473.523376,485.045044 460.842346,485.576477 450.111725,478.686615 
	C440.096802,472.256165 434.939240,459.970001 437.186768,447.896881 
	C439.346436,436.295624 448.765686,427.085693 461.055908,424.557983 
	C472.907867,422.120361 485.757294,428.062378 492.078583,438.903992 
	C498.439728,449.814087 497.118866,463.758606 488.779968,473.294586 
	C487.687927,474.543396 486.426819,475.644348 484.950317,477.026337 
M455.023895,431.209229 
	C453.393951,432.355255 451.674469,433.393890 450.148987,434.665283 
	C442.037384,441.425781 439.157623,452.094055 442.649597,462.161011 
	C446.055420,471.979645 455.390289,478.789398 465.727051,478.995880 
	C476.155945,479.204254 485.982025,473.029724 489.627075,463.377563 
	C493.415161,453.346649 491.941925,443.958832 484.253967,436.204437 
	C476.084015,427.963867 466.331085,426.824738 455.023895,431.209229 
z"/>
<path fill="#0A0A0A" opacity="1.000000" stroke="none" 
	d="
M761.030029,474.986115 
	C757.747070,474.986115 754.960266,474.986115 751.983948,474.986115 
	C751.983948,460.835114 751.983948,447.120239 751.983948,433.057892 
	C762.254700,433.057892 772.412109,432.359406 782.427673,433.251770 
	C792.715088,434.168335 799.765259,444.588623 799.059143,455.815857 
	C798.388123,466.484222 789.582458,474.569824 777.990356,474.954254 
	C772.507996,475.136047 767.014648,474.985901 761.030029,474.986115 
M755.572266,467.404755 
	C755.529907,469.278992 755.312561,471.028229 758.234985,470.959686 
	C765.721008,470.784058 773.236389,471.217102 780.696045,470.731384 
	C788.853027,470.200226 794.872253,462.884491 795.000122,454.295197 
	C795.127625,445.723877 789.499512,437.672821 782.131836,437.222778 
	C773.383972,436.688507 764.578430,437.097137 755.886719,437.097137 
	C755.736450,437.827515 755.615051,438.144104 755.614319,438.460999 
	C755.592712,447.781860 755.583130,457.102753 755.572266,467.404755 
z"/>
<path fill="#0D0D0D" opacity="1.000000" stroke="none" 
	d="
M455.381317,431.061279 
	C466.331085,426.824738 476.084015,427.963867 484.253967,436.204437 
	C491.941925,443.958832 493.415161,453.346649 489.627075,463.377563 
	C485.982025,473.029724 476.155945,479.204254 465.727051,478.995880 
	C455.390289,478.789398 446.055420,471.979645 442.649597,462.161011 
	C439.157623,452.094055 442.037384,441.425781 450.148987,434.665283 
	C451.674469,433.393890 453.393951,432.355255 455.381317,431.061279 
M484.944641,464.219910 
	C489.473694,454.844879 488.261627,445.807983 481.555420,438.951416 
	C475.480682,432.740479 465.959808,430.791473 458.127075,434.155273 
	C449.767181,437.745514 444.555969,446.174164 445.091766,455.238617 
	C445.599640,463.829956 451.902924,471.658417 460.356598,474.197205 
	C469.567749,476.963409 477.977173,473.730530 484.944641,464.219910 
z"/>
<path fill="#EAEAEA" opacity="1.000000" stroke="none" 
	d="
M755.571899,466.914185 
	C755.583130,457.102753 755.592712,447.781860 755.614319,438.460999 
	C755.615051,438.144104 755.736450,437.827515 755.886719,437.097137 
	C764.578430,437.097137 773.383972,436.688507 782.131836,437.222778 
	C789.499512,437.672821 795.127625,445.723877 795.000122,454.295197 
	C794.872253,462.884491 788.853027,470.200226 780.696045,470.731384 
	C773.236389,471.217102 765.721008,470.784058 758.234985,470.959686 
	C755.312561,471.028229 755.529907,469.278992 755.571899,466.914185 
M790.070923,456.948547 
	C790.469666,447.995514 787.659119,442.409271 781.446594,441.863831 
	C774.438660,441.248596 767.335205,441.722107 760.258606,441.722107 
	C760.258606,450.031555 760.258606,457.961395 760.258606,466.208344 
	C765.957458,466.208344 771.431946,465.981659 776.879761,466.266693 
	C783.442932,466.610107 787.694031,463.842560 790.070923,456.948547 
z"/>
<path fill="#E6E6E6" opacity="1.000000" stroke="none" 
	d="
M484.766144,464.550842 
	C477.977173,473.730530 469.567749,476.963409 460.356598,474.197205 
	C451.902924,471.658417 445.599640,463.829956 445.091766,455.238617 
	C444.555969,446.174164 449.767181,437.745514 458.127075,434.155273 
	C465.959808,430.791473 475.480682,432.740479 481.555420,438.951416 
	C488.261627,445.807983 489.473694,454.844879 484.766144,464.550842 
M451.168365,460.886688 
	C456.118530,468.931305 462.634247,471.945343 470.797668,469.966583 
	C477.206421,468.413208 482.600189,461.891937 483.053192,455.149261 
	C483.516754,448.249695 479.876648,441.867462 473.698792,438.867371 
	C467.194977,435.709015 461.111572,436.603088 455.607971,441.125183 
	C450.014099,445.721497 448.464111,452.342957 451.168365,460.886688 
z"/>
<path fill="#030303" opacity="1.000000" stroke="none" 
	d="
M790.008057,457.361389 
	C787.694031,463.842560 783.442932,466.610107 776.879761,466.266693 
	C771.431946,465.981659 765.957458,466.208344 760.258606,466.208344 
	C760.258606,457.961395 760.258606,450.031555 760.258606,441.722107 
	C767.335205,441.722107 774.438660,441.248596 781.446594,441.863831 
	C787.659119,442.409271 790.469666,447.995514 790.008057,457.361389 
z"/>
<path fill="#030303" opacity="1.000000" stroke="none" 
	d="
M451.042786,460.503937 
	C448.464111,452.342957 450.014099,445.721497 455.607971,441.125183 
	C461.111572,436.603088 467.194977,435.709015 473.698792,438.867371 
	C479.876648,441.867462 483.516754,448.249695 483.053192,455.149261 
	C482.600189,461.891937 477.206421,468.413208 470.797668,469.966583 
	C462.634247,471.945343 456.118530,468.931305 451.042786,460.503937 
z"/>
</svg>